<?xml version="1.0" standalone="no"?>
<!DOCTYPE svg PUBLIC "-//W3C//DTD SVG 20010904//EN"
 "http://www.w3.org/TR/2001/REC-SVG-20010904/DTD/svg10.dtd">
<svg version="1.0" xmlns="http://www.w3.org/2000/svg"
 width="441.000000pt" height="280.000000pt" viewBox="0 0 441.000000 280.000000"
 preserveAspectRatio="xMidYMid meet">

<g transform="translate(0.000000,280.000000) scale(0.100000,-0.100000)"
fill="#000000" stroke="none">
<path d="M1690 2294 l0 -495 -31 23 c-186 139 -367 205 -589 215 -192 8 -335
-24 -514 -115 -492 -252 -683 -861 -430 -1370 134 -267 369 -460 640 -523 128
-29 322 -24 467 14 264 70 450 188 710 449 l147 149 0 250 c0 137 -3 249 -6
249 -3 0 -112 -103 -242 -229 -407 -393 -475 -445 -649 -496 -81 -25 -249 -25
-327 -1 -186 56 -325 173 -406 341 -48 101 -63 167 -63 275 0 109 15 174 65
280 75 156 236 289 408 336 102 28 246 24 343 -9 158 -55 297 -174 375 -325
52 -100 74 -186 76 -294 0 -49 2 -88 4 -88 1 0 97 88 212 196 l210 195 0 735
0 734 -200 0 -200 0 0 -496z"/>
<path d="M2325 2228 c-4 -310 -5 -583 -3 -607 l3 -44 198 178 197 177 0 429 0
429 -194 0 -194 0 -7 -562z"/>
<path d="M3300 2033 c-63 -7 -199 -44 -271 -74 -163 -67 -320 -188 -541 -419
l-158 -165 0 -253 0 -253 208 186 c163 145 213 196 235 238 62 118 194 243
322 306 128 62 284 81 425 52 111 -23 241 -92 319 -169 123 -123 174 -258 173
-462 -2 -378 -211 -595 -602 -625 -332 -26 -632 234 -667 578 l-8 76 -202
-180 -203 -180 0 -340 0 -339 195 0 195 0 0 120 c0 66 2 120 5 120 3 0 33 -21
67 -46 297 -219 713 -255 1043 -91 243 120 425 327 516 585 70 200 68 475 -5
688 -100 294 -308 505 -595 603 -117 40 -312 59 -451 44z"/>
<path d="M1888 278 l-198 -171 0 -49 0 -48 200 0 200 0 0 220 c0 121 -1 220
-2 220 -2 -1 -92 -78 -200 -172z"/>
</g>
</svg>
