<svg width="341" height="341" viewBox="0 0 341 341" fill="none" xmlns="http://www.w3.org/2000/svg">
<path d="M155.564 112.462C164.055 109.529 173.364 109.529 181.855 112.496C178.002 107.824 173.535 103.903 168.693 100.697C163.851 103.903 159.383 107.824 155.564 112.462Z" fill="#601B23"/>
<path d="M155.564 112.462C164.055 109.529 173.364 109.529 181.855 112.496C178.002 107.824 173.535 103.903 168.693 100.697C163.851 103.903 159.383 107.824 155.564 112.462Z" stroke="#601B23" stroke-width="6" stroke-miterlimit="10" stroke-linecap="round" stroke-linejoin="round"/>
<path d="M182.98 244.906C182.98 251.249 181.651 257.318 179.195 263.491C179.127 263.695 179.025 263.9 178.923 264.138C176.467 270.004 172.955 275.869 168.693 279.313C164.294 275.767 160.713 269.663 158.224 263.627C158.19 263.593 158.19 263.559 158.156 263.491C155.7 257.318 154.371 251.249 154.371 244.906C154.371 242.962 154.507 241.053 154.746 239.075C155.564 232.46 160.065 224.48 165.692 223.628C165.76 223.628 165.828 223.594 165.896 223.594C167.67 223.389 169.477 223.389 171.25 223.559C171.318 223.559 171.421 223.559 171.489 223.594C177.218 224.31 181.821 232.391 182.639 239.075C182.844 241.053 182.98 242.962 182.98 244.906Z" fill="#F4A045"/>
<path d="M182.98 244.906C182.98 251.249 181.651 257.318 179.195 263.491C179.127 263.695 179.025 263.9 178.923 264.138C176.467 270.004 172.955 275.869 168.693 279.313C164.294 275.767 160.713 269.663 158.224 263.627C158.19 263.593 158.19 263.559 158.156 263.491C155.7 257.318 154.371 251.249 154.371 244.906C154.371 242.962 154.507 241.053 154.746 239.075C155.564 232.46 160.065 224.48 165.692 223.628C165.76 223.628 165.828 223.594 165.896 223.594C167.67 223.389 169.477 223.389 171.25 223.559C171.318 223.559 171.421 223.559 171.489 223.594C177.218 224.31 181.821 232.391 182.639 239.075C182.844 241.053 182.98 242.962 182.98 244.906Z" stroke="#601B23" stroke-width="6" stroke-miterlimit="10" stroke-linecap="round" stroke-linejoin="round"/>
<path d="M341 280.029C335.817 281.564 331.588 285.349 329.474 290.259C325.382 288.793 320.949 287.974 316.346 287.974C302.706 287.974 290.702 294.999 283.746 305.604C280.131 303.899 276.108 302.978 271.845 302.978C269.97 302.978 268.162 303.149 266.423 303.524C266.423 303.354 266.423 303.183 266.423 302.978C266.423 294.283 260.285 287.02 252.135 285.281C248.998 274.539 239.109 266.662 227.345 266.662C217.558 266.662 209.033 272.118 204.668 280.131C201.633 277.301 197.575 275.528 193.108 275.528C190.551 275.528 188.13 276.108 185.947 277.097C183.287 272.97 180.935 268.64 178.923 264.07C173.944 252.817 171.182 240.269 171.182 227.106C171.182 225.912 171.216 224.753 171.25 223.56C171.83 208.317 176.092 194.029 183.219 181.548H153.723C160.85 194.029 165.112 208.351 165.692 223.594C165.726 224.753 165.76 225.912 165.76 227.072C165.76 240.03 163.066 252.408 158.224 263.593C155.053 270.89 150.995 277.71 146.118 283.882C141.992 278.767 135.684 275.528 128.625 275.528C121.532 275.528 115.224 278.802 111.098 283.917C107.79 281.973 103.971 280.848 99.8448 280.848C93.2294 280.848 87.2619 283.78 83.204 288.384C77.2024 279.484 67.0406 273.618 55.5148 273.618C37.1008 273.618 22.165 288.554 22.165 306.968C22.165 307.07 22.165 307.173 22.165 307.275C9.68444 313.618 0.920739 326.235 0.0682373 341H80.5442H245.554H341V280.029Z" fill="white"/>
<path d="M167.124 223.525C163.919 223.935 161.361 228.436 160.884 232.153C160.747 233.244 160.679 234.301 160.679 235.392C160.679 238.939 161.429 242.315 162.793 245.759C164.157 249.135 166.203 252.579 168.659 254.556C171.148 252.579 173.16 249.135 174.524 245.759C175.888 242.315 176.638 238.939 176.638 235.392C176.638 234.301 176.57 233.244 176.433 232.153C175.956 228.402 173.398 223.935 170.193 223.525C169.204 223.423 168.147 223.423 167.124 223.525Z" fill="#E36535"/>
<path d="M167.124 223.525C163.919 223.935 161.361 228.436 160.884 232.153C160.747 233.244 160.679 234.301 160.679 235.392C160.679 238.939 161.429 242.315 162.793 245.759C164.157 249.135 166.203 252.579 168.659 254.556C171.148 252.579 173.16 249.135 174.524 245.759C175.888 242.315 176.638 238.939 176.638 235.392C176.638 234.301 176.57 233.244 176.433 232.153C175.956 228.402 173.398 223.935 170.193 223.525C169.204 223.423 168.147 223.423 167.124 223.525Z" stroke="#601B23" stroke-width="6" stroke-miterlimit="10" stroke-linecap="round" stroke-linejoin="round"/>
<path d="M127.534 171.455L116.417 175.785V154.678L150.551 128.045V167.977L142.299 172.307C137.9 169.988 132.547 169.511 127.534 171.455Z" fill="#C11A4D"/>
<path d="M112.803 181.31C109.325 176.263 107.313 170.295 107.313 163.919C107.313 155.837 110.484 148.437 115.769 142.743C121.055 148.437 124.26 155.837 124.294 163.919C124.294 170.33 122.283 176.263 118.838 181.31H112.803Z" fill="#CF264D"/>
<path opacity="0.72" d="M116.417 175.785L127.466 171.489C127.602 168.556 127.398 165.555 126.852 162.555C126.034 158.053 124.499 153.825 122.385 150.006L116.417 154.678V175.785Z" fill="#A5143A"/>
<path opacity="0.23" d="M117.85 160.577L150.586 135.07V128.045L116.417 154.643V175.785L117.85 175.24V160.577Z" fill="#F4A15D"/>
<path opacity="0.72" d="M136.98 170.5C138.855 170.807 140.628 171.421 142.299 172.307L150.551 167.977V128.045L136.161 139.264C135.445 143.595 135.104 148.13 135.104 152.802C135.138 158.974 135.786 164.942 136.98 170.5Z" fill="#A5143A"/>
<path d="M127.534 171.455L116.417 175.785V154.678L150.551 128.045V167.977L142.299 172.307C137.9 169.988 132.547 169.511 127.534 171.455Z" stroke="#601B23" stroke-width="6" stroke-miterlimit="10" stroke-linecap="round" stroke-linejoin="round"/>
<path d="M112.803 181.31C109.325 176.263 107.313 170.295 107.313 163.919C107.313 155.837 110.484 148.437 115.769 142.743C121.055 148.437 124.26 155.837 124.294 163.919C124.294 170.33 122.283 176.263 118.838 181.31H112.803Z" fill="#CF264D"/>
<path opacity="0.23" d="M115.258 142.743C115.667 143.186 116.076 143.663 116.451 144.141C112.905 149.597 110.859 156.008 110.825 162.828C110.825 169.579 111.848 175.888 115.326 181.344H112.189C108.745 176.297 106.733 170.33 106.733 163.953C106.767 155.837 109.972 148.437 115.258 142.743Z" fill="#F4A15D"/>
<path opacity="0.32" d="M115.258 142.743C115.394 142.879 115.531 143.05 115.667 143.22C111.677 149.119 109.393 156.042 109.359 163.475C109.359 169.92 111.098 175.99 114.133 181.344H112.189C108.745 176.297 106.733 170.33 106.733 163.953C106.767 155.837 109.972 148.437 115.258 142.743Z" fill="#F4A15D"/>
<path opacity="0.37" d="M124.294 163.919C124.294 155.837 121.089 148.471 115.769 142.743C115.36 143.186 114.951 143.663 114.576 144.141C118.122 149.597 120.168 156.008 120.202 162.828C120.202 169.579 118.225 175.888 114.746 181.344H118.838C122.283 176.263 124.294 170.295 124.294 163.919Z" fill="#A5143A"/>
<path opacity="0.72" d="M124.294 163.919C124.294 155.837 121.089 148.471 115.769 142.743C115.633 142.879 115.497 143.05 115.36 143.22C119.35 149.119 121.635 156.042 121.669 163.475C121.669 169.92 119.93 175.99 116.895 181.344H118.838C122.283 176.263 124.294 170.295 124.294 163.919Z" fill="#A5143A"/>
<path opacity="0.37" d="M115.769 142.743C115.36 143.186 114.951 143.663 114.576 144.141C118.122 149.597 120.168 156.008 120.202 162.828C120.202 169.579 118.225 175.888 114.746 181.344H118.838C122.283 176.297 124.294 170.33 124.294 163.953C124.26 155.837 121.055 148.437 115.769 142.743Z" fill="#A5143A"/>
<path opacity="0.72" d="M115.769 142.743C115.633 142.879 115.497 143.05 115.36 143.22C119.35 149.119 121.635 156.042 121.669 163.475C121.669 169.92 119.93 175.99 116.895 181.344H118.838C122.283 176.297 124.294 170.33 124.294 163.953C124.26 155.837 121.055 148.437 115.769 142.743Z" fill="#A5143A"/>
<path d="M119.657 148.881C118.395 146.664 116.895 144.618 115.156 142.708C113.417 144.584 111.916 146.664 110.654 148.881H119.657Z" fill="#601B23"/>
<path d="M112.803 181.31C109.325 176.263 107.313 170.295 107.313 163.919C107.313 155.837 110.484 148.437 115.769 142.743C121.055 148.437 124.26 155.837 124.294 163.919C124.294 170.33 122.283 176.263 118.838 181.31H112.803Z" stroke="#601B23" stroke-width="6" stroke-miterlimit="10" stroke-linecap="round" stroke-linejoin="round"/>
<path d="M157.099 207.635C157.099 207.635 152.973 208.521 147.039 214.455C144.891 216.603 141.515 220.968 139.026 224.276C138.003 225.64 135.82 224.958 135.786 223.253L134.968 186.936C134.797 185.913 135.07 184.856 135.718 184.072L144.652 172.955L157.099 207.635Z" fill="#CF264D"/>
<path opacity="0.32" d="M135.718 223.969C137.662 223.696 139.128 222.025 139.162 220.047L139.537 186.288C139.367 185.265 139.639 184.208 140.287 183.424L145.88 176.433L144.618 172.955L135.718 184.038C135.07 184.856 134.797 185.879 134.968 186.902L135.718 223.969Z" fill="#F4A15D"/>
<path opacity="0.72" d="M157.099 207.635L144.652 172.955L139.708 179.127C142.367 189.357 146.562 199.758 152.222 210.124C155.223 208.044 157.099 207.635 157.099 207.635Z" fill="#A5143A"/>
<path d="M157.099 207.635C157.099 207.635 152.973 208.521 147.039 214.455C144.891 216.603 141.515 220.968 139.026 224.276C138.003 225.64 135.82 224.958 135.786 223.253L134.968 186.936C134.797 185.913 135.07 184.856 135.718 184.072L144.652 172.955L157.099 207.635Z" stroke="#601B23" stroke-width="6" stroke-miterlimit="10" stroke-linecap="round" stroke-linejoin="round"/>
<path d="M109.563 176.809H120.782" stroke="#601B23" stroke-width="4" stroke-miterlimit="10" stroke-linecap="round" stroke-linejoin="round"/>
<path d="M112.803 181.31C109.325 176.263 107.313 170.295 107.313 163.919C107.313 155.837 110.484 148.437 115.769 142.743C121.055 148.437 124.26 155.837 124.294 163.919C124.294 170.33 122.283 176.263 118.838 181.31H112.803Z" fill="#CF264D"/>
<path d="M112.803 181.31C109.325 176.263 107.313 170.295 107.313 163.919C107.313 155.837 110.484 148.437 115.769 142.743C121.055 148.437 124.26 155.837 124.294 163.919C124.294 170.33 122.283 176.263 118.838 181.31H112.803Z" fill="#CF264D"/>
<path opacity="0.23" d="M115.258 142.743C115.667 143.186 116.076 143.663 116.451 144.141C112.905 149.597 110.859 156.008 110.825 162.828C110.825 169.579 111.848 175.888 115.326 181.344H112.189C108.745 176.297 106.733 170.33 106.733 163.953C106.767 155.837 109.972 148.437 115.258 142.743Z" fill="#F4A15D"/>
<path opacity="0.32" d="M115.258 142.743C115.394 142.879 115.531 143.05 115.667 143.22C111.677 149.119 109.393 156.042 109.359 163.475C109.359 169.92 111.098 175.99 114.133 181.344H112.189C108.745 176.297 106.733 170.33 106.733 163.953C106.767 155.837 109.972 148.437 115.258 142.743Z" fill="#F4A15D"/>
<path opacity="0.37" d="M124.294 163.919C124.294 155.837 121.089 148.471 115.769 142.743C115.36 143.186 114.951 143.663 114.576 144.141C118.122 149.597 120.168 156.008 120.202 162.828C120.202 169.579 118.225 175.888 114.746 181.344H118.838C122.283 176.263 124.294 170.295 124.294 163.919Z" fill="#A5143A"/>
<path opacity="0.72" d="M124.294 163.919C124.294 155.837 121.089 148.471 115.769 142.743C115.633 142.879 115.497 143.05 115.36 143.22C119.35 149.119 121.635 156.042 121.669 163.475C121.669 169.92 119.93 175.99 116.895 181.344H118.838C122.283 176.263 124.294 170.295 124.294 163.919Z" fill="#A5143A"/>
<path opacity="0.37" d="M115.769 142.743C115.36 143.186 114.951 143.663 114.576 144.141C118.122 149.597 120.168 156.008 120.202 162.828C120.202 169.579 118.225 175.888 114.746 181.344H118.838C122.283 176.297 124.294 170.33 124.294 163.953C124.26 155.837 121.055 148.437 115.769 142.743Z" fill="#A5143A"/>
<path opacity="0.72" d="M115.769 142.743C115.633 142.879 115.497 143.05 115.36 143.22C119.35 149.119 121.635 156.042 121.669 163.475C121.669 169.92 119.93 175.99 116.895 181.344H118.838C122.283 176.297 124.294 170.33 124.294 163.953C124.26 155.837 121.055 148.437 115.769 142.743Z" fill="#A5143A"/>
<path d="M120.271 148.881C119.009 146.664 117.509 144.618 115.77 142.708C114.03 144.584 112.53 146.664 111.268 148.881H120.271Z" fill="#601B23"/>
<path d="M112.803 181.31C109.325 176.263 107.313 170.295 107.313 163.919C107.313 155.837 110.484 148.437 115.769 142.743C121.055 148.437 124.26 155.837 124.294 163.919C124.294 170.33 122.283 176.263 118.838 181.31H112.803Z" stroke="#601B23" stroke-width="6" stroke-miterlimit="10" stroke-linecap="round" stroke-linejoin="round"/>
<path d="M109.563 176.809H120.782" stroke="#601B23" stroke-width="4" stroke-miterlimit="10" stroke-linecap="round" stroke-linejoin="round"/>
<path d="M207.84 171.455L218.956 175.785V154.678L184.822 128.045V167.977L193.074 172.307C197.473 169.988 202.827 169.511 207.84 171.455Z" fill="#C11A4D"/>
<path opacity="0.72" d="M218.956 175.785L207.908 171.489C207.771 168.556 207.976 165.555 208.521 162.555C209.34 158.053 210.874 153.825 212.989 150.006L218.956 154.678V175.785Z" fill="#A5143A"/>
<path opacity="0.23" d="M217.558 160.577L184.822 135.07V128.045L218.956 154.643V175.785L217.558 175.24V160.577Z" fill="#F4A15D"/>
<path opacity="0.72" d="M198.394 170.5C196.518 170.807 194.745 171.421 193.074 172.307L184.822 167.977V128.045L199.212 139.264C199.928 143.595 200.269 148.13 200.269 152.802C200.269 158.974 199.621 164.942 198.394 170.5Z" fill="#A5143A"/>
<path d="M207.84 171.455L218.956 175.785V154.678L184.822 128.045V167.977L193.074 172.307C197.473 169.988 202.827 169.511 207.84 171.455Z" stroke="#601B23" stroke-width="6" stroke-miterlimit="10" stroke-linecap="round" stroke-linejoin="round"/>
<path d="M178.309 207.635C178.309 207.635 182.435 208.521 188.368 214.455C190.517 216.603 193.893 220.968 196.382 224.276C197.405 225.64 199.587 224.958 199.621 223.253L200.44 186.936C200.61 185.913 200.337 184.856 199.69 184.072L190.755 172.955L178.309 207.635Z" fill="#CF264D"/>
<path opacity="0.72" d="M199.655 223.969C197.712 223.696 196.245 222.025 196.211 220.047L195.836 186.288C196.007 185.265 195.734 184.208 195.086 183.424L189.494 176.433L190.755 172.955L199.69 184.072C200.337 184.89 200.61 185.913 200.44 186.936L199.655 223.969Z" fill="#A5143A"/>
<path opacity="0.72" d="M178.309 207.635L190.755 172.955L195.7 179.127C193.04 189.357 188.846 199.758 183.185 210.124C180.184 208.044 178.309 207.635 178.309 207.635Z" fill="#A5143A"/>
<path d="M178.309 207.635C178.309 207.635 182.435 208.521 188.368 214.455C190.517 216.603 193.893 220.968 196.382 224.276C197.405 225.64 199.587 224.958 199.621 223.253L200.44 186.936C200.61 185.913 200.337 184.856 199.69 184.072L190.755 172.955L178.309 207.635Z" stroke="#601B23" stroke-width="6" stroke-miterlimit="10" stroke-linecap="round" stroke-linejoin="round"/>
<path d="M178.138 227.14C178.513 223.082 177.968 219.263 171.148 209.203C170.023 207.601 167.329 207.601 166.203 209.203C159.383 219.297 158.838 223.116 159.213 227.14C159.281 227.652 160.202 228.231 160.781 228.027C164.703 226.015 172.648 226.015 176.57 228.027C177.149 228.231 178.07 227.686 178.138 227.14Z" fill="#4E8280"/>
<g opacity="0.32">
<g opacity="0.32">
<g opacity="0.32">
<path opacity="0.32" d="M162.657 227.14C162.282 223.082 162.827 219.263 169.647 209.203C169.852 208.896 170.125 208.658 170.398 208.487C169.102 207.635 167.124 207.873 166.203 209.203C159.383 219.297 158.838 223.116 159.213 227.14C159.281 227.651 160.202 228.231 160.781 228.027C161.361 227.754 162.009 227.481 162.691 227.276C162.691 227.242 162.657 227.208 162.657 227.14Z" fill="#F4A15D"/>
</g>
<g opacity="0.32">
<path opacity="0.32" d="M170.398 226.594C172.75 226.765 174.967 227.242 176.57 228.026C177.081 228.231 177.9 227.754 178.104 227.276C175.854 226.628 173.057 226.39 170.398 226.594Z" fill="#F4A15D"/>
</g>
</g>
</g>
<path d="M167.397 209.203C167.295 209.067 167.192 208.965 167.09 208.862C168.352 207.601 170.705 207.737 171.728 209.203C178.548 219.297 179.093 223.116 178.718 227.14C178.65 227.651 177.729 228.231 177.149 228.026C176.365 227.617 175.41 227.31 174.387 227.072C174.762 223.048 174.183 219.229 167.397 209.203Z" fill="#37605D"/>
<path d="M178.138 227.14C178.513 223.082 177.968 219.263 171.148 209.203C170.023 207.601 167.329 207.601 166.203 209.203C159.383 219.297 158.838 223.116 159.213 227.14C159.281 227.652 160.202 228.231 160.781 228.027C164.703 226.015 172.648 226.015 176.57 228.027C177.149 228.231 178.07 227.686 178.138 227.14Z" stroke="#601B23" stroke-width="6" stroke-miterlimit="10" stroke-linecap="round" stroke-linejoin="round"/>
<path d="M176.365 214.898C192.426 188.607 198.257 162.793 194.643 141.276C191.506 122.589 181.412 109.12 168.659 100.697C155.905 109.12 145.812 122.589 142.674 141.276C139.06 162.793 144.925 188.607 160.952 214.898H176.365Z" fill="#CF264D"/>
<path opacity="0.23" d="M154.882 141.651C156.928 124.738 162.248 111.302 169.409 101.243C169.17 101.072 168.897 100.902 168.659 100.731C155.905 109.154 145.812 122.624 142.674 141.31C139.06 162.828 144.925 188.641 160.952 214.932H164.191C155.291 188.641 152.291 163.373 154.882 141.651Z" fill="#F4A15D"/>
<path opacity="0.37" d="M194.643 141.276C191.54 122.726 181.582 109.325 168.931 100.902C171.284 104.687 174.285 110.143 176.808 117.065C181.412 129.648 181.923 140.015 182.196 146.528C183.424 175.82 172.205 208.215 169.852 214.932H176.365C192.426 188.607 198.257 162.793 194.643 141.276Z" fill="#A5143A"/>
<path opacity="0.72" d="M194.643 141.276C191.506 122.589 181.412 109.12 168.659 100.697C168.318 100.902 168.011 101.141 167.67 101.345C172.512 105.13 176.195 109.188 178.991 113.076C204.088 147.994 180.014 200.269 176.706 207.192C176.57 202.486 175.956 196.655 174.217 190.142C173.092 185.981 171.728 182.333 170.364 179.23C169.852 190.789 169.341 202.349 168.829 213.909H173.057C172.955 214.25 172.853 214.557 172.716 214.898H176.297C192.426 188.607 198.257 162.793 194.643 141.276Z" fill="#A5143A"/>
<path opacity="0.32" d="M146.971 147.209C147.448 141.753 149.222 124.021 160.168 109.461C161.907 107.176 164.498 104.073 164.294 103.902C163.987 103.63 157.985 109.052 153.723 114.814C148.369 122.01 144.448 130.841 142.708 141.276C139.094 162.793 144.959 188.607 160.986 214.898H162.384C157.985 206.134 155.087 198.223 153.109 191.983C151.813 187.788 149.528 180.355 148.096 170.397C147.176 163.714 146.153 156.553 146.971 147.209Z" fill="#F4A15D"/>
<path opacity="0.72" d="M170.5 154.234C175.622 154.234 179.775 150.082 179.775 144.959C179.775 139.837 175.622 135.684 170.5 135.684C165.377 135.684 161.225 139.837 161.225 144.959C161.225 150.082 165.377 154.234 170.5 154.234Z" fill="#A5143A" stroke="#A5143A" stroke-width="6" stroke-miterlimit="10" stroke-linecap="round" stroke-linejoin="round"/>
<path d="M176.365 214.898C192.426 188.607 198.257 162.793 194.643 141.276C191.506 122.589 181.412 109.12 168.659 100.697C155.905 109.12 145.812 122.589 142.674 141.276C139.06 162.793 144.925 188.607 160.952 214.898H176.365Z" stroke="#601B23" stroke-width="6" stroke-miterlimit="10" stroke-linecap="round" stroke-linejoin="round"/>
<path d="M177.819 145.013C178.639 139.957 175.206 135.193 170.149 134.372C165.093 133.551 160.328 136.985 159.508 142.041C158.687 147.098 162.121 151.862 167.177 152.683C172.234 153.504 176.998 150.07 177.819 145.013Z" fill="#ABCFD8"/>
<path opacity="0.93" d="M167.397 148.608C170.485 148.608 172.989 146.104 172.989 143.015C172.989 139.927 170.485 137.423 167.397 137.423C164.308 137.423 161.804 139.927 161.804 143.015C161.804 146.104 164.308 148.608 167.397 148.608Z" fill="#E2F0F2"/>
<path d="M177.819 145.013C178.639 139.957 175.206 135.193 170.149 134.372C165.093 133.551 160.328 136.985 159.508 142.041C158.687 147.098 162.121 151.862 167.177 152.683C172.234 153.504 176.998 150.07 177.819 145.013Z" stroke="#601B23" stroke-width="6" stroke-miterlimit="10" stroke-linecap="round" stroke-linejoin="round"/>
<path d="M168.659 230.857C169.034 230.857 169.341 230.448 169.375 229.902L171.932 188.164C172.205 183.867 170.841 179.878 168.829 178.923C168.693 178.855 168.556 178.855 168.454 178.923C166.442 179.843 165.078 183.833 165.351 188.164L167.908 229.902C167.977 230.448 168.318 230.857 168.659 230.857Z" fill="#BC1D4E"/>
<path opacity="0.74" d="M168.659 230.857C169.034 230.857 169.341 230.448 169.375 229.902L171.932 188.164C172.205 183.867 170.841 179.878 168.829 178.923C168.693 178.855 168.556 178.855 168.454 178.923C166.442 179.843 165.078 183.833 165.351 188.164L167.908 229.902C167.977 230.448 168.318 230.857 168.659 230.857Z" fill="#A5143A"/>
<g opacity="0.53">
<g opacity="0.53">
<g opacity="0.53">
<path opacity="0.53" d="M168.488 178.923C166.476 179.844 165.112 183.833 165.385 188.164L167.943 229.902C167.977 230.346 168.181 230.721 168.454 230.823V178.923H168.488Z" fill="#F4A15D"/>
</g>
<g opacity="0.53">
<path opacity="0.53" d="M168.489 178.923H168.864C168.727 178.855 168.591 178.855 168.489 178.923Z" fill="#F4A15D"/>
</g>
</g>
</g>
<path d="M168.659 230.857C169.034 230.857 169.341 230.448 169.375 229.902L171.932 188.164C172.205 183.867 170.841 179.878 168.829 178.923C168.693 178.855 168.556 178.855 168.454 178.923C166.442 179.843 165.078 183.833 165.351 188.164L167.908 229.902C167.977 230.448 168.318 230.857 168.659 230.857Z" stroke="#601B23" stroke-width="6" stroke-miterlimit="10" stroke-linecap="round" stroke-linejoin="round"/>
<path d="M218.717 181.31C215.239 176.263 213.227 170.295 213.227 163.919C213.227 155.837 216.399 148.437 221.684 142.743C226.97 148.437 230.175 155.837 230.209 163.919C230.209 170.33 228.197 176.263 224.753 181.31H218.717Z" fill="#CF264D"/>
<path d="M218.717 181.31C215.239 176.263 213.227 170.295 213.227 163.919C213.227 155.837 216.399 148.437 221.684 142.743C226.97 148.437 230.175 155.837 230.209 163.919C230.209 170.33 228.197 176.263 224.753 181.31H218.717Z" fill="#CF264D"/>
<path opacity="0.23" d="M221.207 142.743C221.616 143.186 222.025 143.663 222.4 144.141C218.854 149.597 216.808 156.008 216.774 162.828C216.774 169.579 217.797 175.888 221.275 181.344H218.138C214.694 176.297 212.682 170.33 212.682 163.953C212.682 155.837 215.887 148.437 221.207 142.743Z" fill="#F4A15D"/>
<path opacity="0.32" d="M221.207 142.743C221.343 142.879 221.479 143.05 221.616 143.22C217.626 149.119 215.341 156.042 215.307 163.475C215.307 169.92 217.046 175.99 220.081 181.344H218.138C214.694 176.297 212.682 170.33 212.682 163.953C212.682 155.837 215.887 148.437 221.207 142.743Z" fill="#F4A15D"/>
<path opacity="0.37" d="M230.209 163.919C230.209 155.837 227.004 148.471 221.684 142.743C221.275 143.186 220.866 143.663 220.491 144.141C224.037 149.597 226.083 156.008 226.117 162.828C226.117 169.579 224.139 175.888 220.661 181.344H224.753C228.197 176.263 230.209 170.295 230.209 163.919Z" fill="#A5143A"/>
<path opacity="0.72" d="M230.209 163.919C230.209 155.837 227.004 148.471 221.684 142.743C221.548 142.879 221.411 143.05 221.275 143.22C225.265 149.119 227.549 156.042 227.583 163.475C227.583 169.92 225.844 175.99 222.809 181.344H224.753C228.197 176.263 230.209 170.295 230.209 163.919Z" fill="#A5143A"/>
<path opacity="0.37" d="M221.684 142.743C221.275 143.186 220.866 143.663 220.491 144.141C224.037 149.597 226.083 156.008 226.117 162.828C226.117 169.579 224.139 175.888 220.661 181.344H224.753C228.197 176.297 230.209 170.33 230.209 163.953C230.209 155.837 227.004 148.437 221.684 142.743Z" fill="#A5143A"/>
<path opacity="0.72" d="M221.684 142.743C221.548 142.879 221.411 143.05 221.275 143.22C225.265 149.119 227.549 156.042 227.583 163.475C227.583 169.92 225.844 175.99 222.809 181.344H224.753C228.197 176.297 230.209 170.33 230.209 163.953C230.209 155.837 227.004 148.437 221.684 142.743Z" fill="#A5143A"/>
<path d="M226.219 148.881C224.958 146.664 223.457 144.618 221.718 142.708C219.979 144.584 218.479 146.664 217.217 148.881H226.219Z" fill="#601B23"/>
<path d="M218.717 181.31C215.239 176.263 213.227 170.295 213.227 163.919C213.227 155.837 216.399 148.437 221.684 142.743C226.97 148.437 230.175 155.837 230.209 163.919C230.209 170.33 228.197 176.263 224.753 181.31H218.717Z" stroke="#601B23" stroke-width="6" stroke-miterlimit="10" stroke-linecap="round" stroke-linejoin="round"/>
<path d="M216.126 176.809H227.345" stroke="#601B23" stroke-width="4" stroke-miterlimit="10" stroke-linecap="round" stroke-linejoin="round"/>
<path opacity="0.41" d="M158.156 111.302C158.156 111.302 160.475 107.654 168.352 101.516C164.703 106.46 163.987 109.563 163.748 109.802C161.429 110.245 158.156 111.302 158.156 111.302Z" fill="white"/>
</svg>
