<svg width="341" height="341" viewBox="0 0 341 341" fill="none" xmlns="http://www.w3.org/2000/svg">
<path opacity="0.23" d="M231.3 137.457V119.179H197.098V100.936H223.184V82.6582H117.474V100.936H140.492V119.213H91.729V137.491H112.632V155.769H63.3237V174.046H132.103V192.324H99.8448V210.601H147.585V228.879H115.77V247.157H214.284V228.879H192.938V210.601H267.685V192.324H230.277V174.046H245.861V155.769H215.819V137.491H231.3V137.457ZM177.286 155.7H151.165V137.423H177.286V155.7Z" fill="#7D5415"/>
<path opacity="0.23" d="M97.1853 82.4878H78.2939V100.765H97.1853V82.4878Z" fill="#A9DBED"/>
<path opacity="0.23" d="M274.846 119.18H255.955V137.457H274.846V119.18Z" fill="#A9DBED"/>
<path d="M154.234 256.193H118.77V264.377H154.234V256.193Z" fill="#26A8A1"/>
<path d="M108.063 256.193H91.4903V264.377H108.063V256.193Z" fill="#26A8A1"/>
<path d="M192.904 256.193H169V264.377H192.904V256.193Z" fill="#26A8A1"/>
<path d="M222.298 256.193H208.556V264.377H222.298V256.193Z" fill="#26A8A1"/>
<path d="M240.03 280.745H226.288V288.929H240.03V280.745Z" fill="#26A8A1"/>
<path d="M128.085 280.768H179.678V272.584H128.085V280.768Z" fill="#26A8A1"/>
<path d="M199.928 280.768H217.251V272.584H199.928V280.768Z" fill="#26A8A1"/>
<path d="M164.313 288.952H207.45V280.768H164.313V288.952Z" fill="#26A8A1"/>
<path d="M145.408 297.136H184.861V288.952H145.408V297.136Z" fill="#26A8A1"/>
<path d="M194.915 173.944H163.305V192.222H194.915V173.944Z" fill="#30B5B2"/>
<path d="M173.807 101.004H128.523V119.282H173.807V101.004Z" fill="#30B5B2"/>
<path d="M224.719 137.457H134.9V155.735H224.719V137.457Z" fill="#30B5B2"/>
<path d="M211.829 192.222H162.111V210.499H211.829V192.222Z" fill="#30B5B2"/>
<path d="M178.786 264.377H145.402V272.561H178.786V264.377Z" fill="#26A8A1"/>
<path d="M169.715 255.409H160.918V268.538H169.715V255.409Z" fill="#FBC3AA"/>
<path d="M178.957 274.846H153.211C153.211 269.083 157.883 264.377 163.68 264.377H178.957V274.846Z" fill="#DD3142"/>
<path d="M170.5 274.846C170.5 267.89 176.161 262.229 183.117 262.229C190.073 262.229 195.734 267.89 195.734 274.846H170.5Z" fill="#DD3142"/>
<path d="M195.734 276.653H153.211C152.7 276.653 152.291 276.244 152.291 275.733C152.291 275.221 152.7 274.812 153.211 274.812H195.734C196.245 274.812 196.655 275.221 196.655 275.733C196.655 276.244 196.245 276.653 195.734 276.653Z" fill="#212D47"/>
<path d="M183.799 265.332C185.362 265.332 186.629 264.904 186.629 264.377C186.629 263.85 185.362 263.422 183.799 263.422C182.236 263.422 180.969 263.85 180.969 264.377C180.969 264.904 182.236 265.332 183.799 265.332Z" fill="white"/>
<path d="M167.158 265.298C167.158 265.128 167.192 264.957 167.26 264.787C167.533 264.241 168.147 264.036 168.693 264.309" stroke="#D32A3B" stroke-width="3" stroke-miterlimit="10" stroke-linecap="round" stroke-linejoin="round"/>
<path d="M169.136 265.298C169.136 265.128 169.17 264.957 169.238 264.787C169.511 264.241 170.125 264.036 170.67 264.309" stroke="#D32A3B" stroke-width="3" stroke-miterlimit="10" stroke-linecap="round" stroke-linejoin="round"/>
<path d="M171.011 265.298C171.011 265.128 171.046 264.957 171.114 264.787C171.387 264.241 172 264.036 172.546 264.309" stroke="#D32A3B" stroke-width="3" stroke-miterlimit="10" stroke-linecap="round" stroke-linejoin="round"/>
<path d="M217.149 132.649H212.477C210.772 132.649 209.408 131.285 209.408 129.58V102.914C209.408 101.209 210.772 99.8447 212.477 99.8447H217.149C218.854 99.8447 220.218 101.209 220.218 102.914V129.58C220.218 131.251 218.854 132.649 217.149 132.649Z" fill="#BCBCBC"/>
<path d="M220.116 132.649H215.444C213.739 132.649 212.375 131.285 212.375 129.58V102.914C212.375 101.209 213.739 99.8447 215.444 99.8447H220.116C221.821 99.8447 223.185 101.209 223.185 102.914V129.58C223.185 131.251 221.821 132.649 220.116 132.649Z" fill="#F7F7F7"/>
<path d="M206.919 138.957V153.552C206.919 160.099 201.736 165.624 195.188 165.794C188.437 165.965 182.878 160.509 182.878 153.791V133.877C182.878 130.194 179.912 127.227 176.229 127.227C172.546 127.227 169.579 130.194 169.579 133.877V153.791C169.579 167.772 180.9 179.093 194.881 179.093C208.862 179.093 220.184 167.772 220.184 153.791V138.957H206.919Z" fill="#DD3142"/>
<path d="M206.919 138.957V153.552C206.919 160.099 201.736 165.624 195.188 165.794C188.437 165.965 182.878 160.509 182.878 153.791V133.877C182.878 130.194 179.912 127.227 176.229 127.227C172.546 127.227 169.579 130.194 169.579 133.877V153.791C169.579 167.772 180.9 179.093 194.881 179.093C208.862 179.093 220.184 167.772 220.184 153.791V138.957H206.919Z" fill="#DD3142"/>
<path d="M176.228 130.637C178.002 130.637 179.468 132.103 179.468 133.877V153.791C179.468 157.917 181.071 161.77 184.003 164.703C186.936 167.636 190.789 169.238 194.915 169.238C195.052 169.238 195.154 169.238 195.29 169.238C203.577 169.034 210.363 162.009 210.363 153.586V142.402L212.852 138.992H206.953V153.586C206.953 160.134 201.769 165.658 195.222 165.828C188.47 165.999 182.912 160.543 182.912 153.825V133.911C182.912 130.228 179.945 127.261 176.263 127.261C175.308 127.261 174.387 127.466 173.535 127.841C174.864 129.512 175.853 130.637 176.228 130.637Z" fill="#D82B45"/>
<path d="M173.808 187.925H155.701V259.399H173.808V187.925Z" fill="#212D47"/>
<path d="M173.808 255.409H155.701V259.399H173.808V255.409Z" fill="#2D3854"/>
<path d="M161.975 187.925H143.868V259.399H161.975V187.925Z" fill="#2D3854"/>
<path d="M157.303 255.409H148.505V268.538H157.303V255.409Z" fill="#FBC3AA"/>
<path d="M161.975 255.409H143.868V259.399H161.975V255.409Z" fill="#394663"/>
<path d="M172.614 198.973H143.561C140.083 198.973 137.253 196.143 137.253 192.665V187.209H178.923V192.665C178.923 196.143 176.092 198.973 172.614 198.973Z" fill="#2D3854"/>
<path d="M149.051 183.083H120.919C114.167 183.083 109.154 174.626 110.62 165.692L114.337 142.879C115.838 133.74 121.805 127.193 128.728 127.193H139.981L149.051 183.083Z" fill="#22314C"/>
<path d="M126.068 176.297C121.089 176.297 117.168 172.068 117.509 167.124L118.122 158.701H134.013L134.627 167.124C134.968 172.068 131.046 176.297 126.068 176.297Z" fill="#2D3854"/>
<path d="M178.923 179.843H137.253V189.289H178.923V179.843Z" fill="#DD3142"/>
<path d="M177.933 186.05H136.502C135.956 186.05 135.513 185.606 135.513 185.061V136.025C135.513 131.149 139.469 127.227 144.311 127.227H172.921C176.228 127.227 178.888 129.921 178.888 133.195V185.061C178.922 185.606 178.479 186.05 177.933 186.05Z" fill="#E53E46"/>
<path d="M163.134 136.468H155.632C153.893 136.468 152.495 135.07 152.495 133.331V127.261H168.318V131.285C168.318 134.149 165.999 136.468 163.134 136.468Z" fill="#DD3142"/>
<path d="M167.636 121.464L159.793 122.351L159.997 127.261H167.636C173.842 127.261 178.889 132.308 178.889 138.514V180.73C182.094 180.73 184.686 178.139 184.686 174.933V138.514C184.686 129.103 177.081 121.464 167.636 121.464Z" fill="#2D3854"/>
<path d="M181.514 137.56C181.514 130.364 175.683 124.533 168.488 124.533H162.623V121.464H159.997V127.261H167.636C173.842 127.261 178.889 132.308 178.889 138.514V180.73C179.843 180.73 180.73 180.491 181.514 180.116V137.56Z" fill="#25314C"/>
<path d="M162.623 133.536H156.144C154.166 133.536 152.563 131.933 152.563 129.955V111.166H166.203V129.955C166.203 131.933 164.6 133.536 162.623 133.536Z" fill="#FBC3AA"/>
<path opacity="0.76" d="M157.167 111.916H166.203V111.166H152.563V129.955C152.563 131.933 154.166 133.536 156.144 133.536H157.201V111.916H157.167Z" fill="#F2AD91"/>
<path d="M152.563 121.021C155.121 121.464 159.519 121.669 164.191 119.623C164.941 119.282 165.589 118.941 166.203 118.532V111.166H152.563V121.021Z" fill="#ED9C80"/>
<path d="M142.947 122.078H137.423C134.558 122.078 132.274 124.397 132.274 127.227V128.625L135.343 127.466C140.219 127.466 144.209 130.774 144.209 135.65V175.376C144.209 178.343 146.596 180.73 149.562 180.73C152.529 180.73 154.916 178.343 154.916 175.376V133.979C154.848 127.398 149.528 122.078 142.947 122.078Z" fill="#2D3854"/>
<path d="M147.585 135.65V180.355C145.573 179.571 144.175 177.661 144.175 175.376V141.651C146.05 139.776 147.244 137.184 147.244 134.354C147.244 133.399 147.107 132.478 146.869 131.592C147.312 132.819 147.585 134.217 147.585 135.65Z" fill="#25314C"/>
<path d="M213.364 144.823C218.637 144.823 222.912 140.548 222.912 135.275C222.912 130.001 218.637 125.727 213.364 125.727C208.091 125.727 203.816 130.001 203.816 135.275C203.816 140.548 208.091 144.823 213.364 144.823Z" fill="#FBC3AA"/>
<path opacity="0.76" d="M217.388 141.651C211.386 141.651 206.51 136.775 206.51 130.774C206.51 129.921 206.612 129.103 206.782 128.318C204.941 130.057 203.782 132.547 203.782 135.275C203.782 140.56 208.044 144.823 213.33 144.823C216.433 144.823 219.161 143.356 220.934 141.072C219.843 141.447 218.649 141.651 217.388 141.651Z" fill="#F2AD91"/>
<path d="M166.579 274.846H140.833C140.833 269.083 145.505 264.377 151.302 264.377H166.579V274.846Z" fill="#DD3142"/>
<path d="M158.122 274.846C158.122 267.89 163.782 262.229 170.739 262.229C177.695 262.229 183.356 267.89 183.356 274.846H158.122Z" fill="#E53E46"/>
<path d="M183.356 276.653H140.833C140.321 276.653 139.912 276.244 139.912 275.733C139.912 275.221 140.321 274.812 140.833 274.812H183.356C183.867 274.812 184.276 275.221 184.276 275.733C184.242 276.244 183.833 276.653 183.356 276.653Z" fill="#212D47"/>
<path d="M174.489 265.332C176.053 265.332 177.32 264.904 177.32 264.377C177.32 263.85 176.053 263.422 174.489 263.422C172.926 263.422 171.659 263.85 171.659 264.377C171.659 264.904 172.926 265.332 174.489 265.332Z" fill="white"/>
<path d="M154.78 265.298C154.78 265.128 154.814 264.957 154.882 264.787C155.155 264.241 155.768 264.036 156.314 264.309" stroke="#D32A3B" stroke-width="3" stroke-miterlimit="10" stroke-linecap="round" stroke-linejoin="round"/>
<path d="M156.758 265.298C156.758 265.128 156.792 264.957 156.86 264.787C157.133 264.241 157.747 264.036 158.292 264.309" stroke="#D32A3B" stroke-width="3" stroke-miterlimit="10" stroke-linecap="round" stroke-linejoin="round"/>
<path d="M158.599 265.298C158.599 265.128 158.633 264.957 158.701 264.787C158.974 264.241 159.588 264.036 160.134 264.309" stroke="#D32A3B" stroke-width="3" stroke-miterlimit="10" stroke-linecap="round" stroke-linejoin="round"/>
<path d="M163.51 115.77C151.847 117.986 140.594 110.28 138.412 98.6173L131.456 61.7893L183.049 52.0708L188.232 79.5554C191.437 96.3667 180.355 112.598 163.51 115.77Z" fill="#FBC3AA"/>
<path opacity="0.76" d="M152.563 98.6172L145.607 61.7892L183.526 54.6282L183.049 52.0366L131.456 61.7551L138.412 98.5831C140.628 110.245 151.847 117.918 163.51 115.735C164.601 115.531 165.692 115.258 166.715 114.951C159.656 112.564 154.064 106.494 152.563 98.6172Z" fill="#F2AD91"/>
<path d="M183.969 54.7985L182.094 44.0229L130.944 56.7422C129.341 57.1514 128.352 58.6859 128.659 60.3227L135.104 94.5591L143.561 92.9564L139.605 66.7335L183.969 54.7985Z" fill="#C65132"/>
<path d="M165.658 97.1509C161.941 97.1509 158.463 96.4689 155.53 95.2754C156.826 100.697 160.85 104.653 165.658 104.653C170.466 104.653 174.456 100.697 175.785 95.2754C172.819 96.4348 169.375 97.1509 165.658 97.1509Z" fill="white"/>
<path d="M154.814 82.4881C154.541 81.0559 155.496 79.6578 156.928 79.4191C158.36 79.1463 159.759 80.1011 159.997 81.5333" stroke="#3F2E21" stroke-width="4" stroke-miterlimit="10" stroke-linecap="round" stroke-linejoin="round"/>
<path d="M150.279 77.782L159.247 73.3149" stroke="#DD6944" stroke-width="8" stroke-miterlimit="10" stroke-linecap="round" stroke-linejoin="round"/>
<path d="M176.092 77.4752C175.82 76.043 174.456 75.0882 173.023 75.361C171.591 75.6338 170.636 76.9978 170.909 78.43" stroke="#3F2E21" stroke-width="4" stroke-miterlimit="10" stroke-linecap="round" stroke-linejoin="round"/>
<path d="M178.445 72.6669L168.454 71.7803" stroke="#DD6944" stroke-width="8" stroke-miterlimit="10" stroke-linecap="round" stroke-linejoin="round"/>
<path d="M180.901 56.879C181.412 58.9932 185.334 73.3493 185.334 73.3493H187.039L183.39 53.9805L180.901 56.879Z" fill="#C65132"/>
<path d="M135.82 97.5602C140.415 97.5602 144.14 93.8352 144.14 89.2398C144.14 84.6449 140.415 80.9194 135.82 80.9194C131.225 80.9194 127.5 84.6449 127.5 89.2398C127.5 93.8352 131.225 97.5602 135.82 97.5602Z" fill="#FBC3AA"/>
<path d="M136.979 93.6046C139.39 93.6046 141.344 91.6503 141.344 89.2398C141.344 86.8293 139.39 84.875 136.979 84.875C134.569 84.875 132.615 86.8293 132.615 89.2398C132.615 91.6503 134.569 93.6046 136.979 93.6046Z" fill="#F2AD91"/>
<path d="M187.516 38.3965C191.539 48.8652 186.322 60.5956 175.853 64.5853C165.385 68.6091 153.654 63.3918 149.665 52.9231L187.516 38.3965Z" fill="#DD6944"/>
<path d="M163.919 42.8638C167.806 50.2976 164.908 59.4705 157.474 63.3579C150.04 67.2453 140.867 64.3468 136.98 56.913L163.919 42.8638Z" fill="#DD6944"/>
<path d="M144.175 141.651V135.65C144.175 130.773 140.219 127.466 135.309 127.466L132.24 128.625V127.227C132.24 126.408 132.444 125.624 132.785 124.908C134.047 124.328 135.445 124.021 136.946 124.021C138.855 124.021 140.628 124.533 142.163 125.454C144.414 126.784 146.119 128.966 146.835 131.523C147.073 132.41 147.21 133.331 147.21 134.286C147.244 137.184 146.05 139.776 144.175 141.651Z" fill="#25314C"/>
<path d="M148.471 200.167C153.839 200.167 158.19 195.816 158.19 190.448C158.19 185.081 153.839 180.73 148.471 180.73C143.104 180.73 138.753 185.081 138.753 190.448C138.753 195.816 143.104 200.167 148.471 200.167Z" fill="#FBC3AA"/>
<path d="M160.065 193.415L155.189 191.028C153.893 190.38 153.348 188.812 153.996 187.516L155.155 185.163L162.384 188.709C163.68 189.357 164.226 190.926 163.578 192.222C162.964 193.552 161.395 194.063 160.065 193.415Z" fill="#F2AD91"/>
<path d="M149.904 200.951L151.234 194.915C151.575 193.279 153.177 192.256 154.814 192.631L157.372 193.21C157.576 193.244 157.713 193.449 157.644 193.654L155.769 202.247C155.428 203.884 153.825 204.907 152.188 204.532C150.586 204.156 149.529 202.554 149.904 200.951Z" fill="#F2AD91"/>
<path d="M152.359 192.086C155.36 188.88 154.916 183.799 151.404 181.139C144.448 175.854 139.571 167.806 138.582 158.565C137.764 151.166 139.503 144.073 143.015 138.139C144.482 135.684 144.448 132.513 142.811 130.16C139.776 125.727 133.195 125.897 130.432 130.433C125.352 138.855 122.828 148.915 123.817 159.452C125.113 173.194 132.24 185.129 142.538 192.938C145.573 195.223 149.801 194.814 152.359 192.086Z" fill="#DD3142"/>
<path d="M143.05 138.139C143.97 136.605 144.277 134.831 144.004 133.126C142.572 134.627 141.106 136.059 140.697 136.741C136.707 143.425 135.036 151.097 135.889 158.872C136.946 168.488 141.992 177.422 149.767 183.322C150.586 183.935 153.041 186.663 154.2 188.505C154.746 185.845 153.757 182.947 151.404 181.139C144.448 175.854 139.571 167.806 138.582 158.565C137.798 151.131 139.503 144.073 143.05 138.139Z" fill="#D82B45"/>
<path d="M163.475 152.086C165.17 152.086 166.544 150.712 166.544 149.017C166.544 147.322 165.17 145.948 163.475 145.948C161.78 145.948 160.406 147.322 160.406 149.017C160.406 150.712 161.78 152.086 163.475 152.086Z" fill="#DD3142"/>
<path d="M157.849 159.69C158.696 159.69 159.383 159.003 159.383 158.156C159.383 157.308 158.696 156.621 157.849 156.621C157.001 156.621 156.314 157.308 156.314 158.156C156.314 159.003 157.001 159.69 157.849 159.69Z" fill="#DD3142"/>
<path d="M171.114 154.712C171.961 154.712 172.648 154.024 172.648 153.177C172.648 152.33 171.961 151.643 171.114 151.643C170.266 151.643 169.579 152.33 169.579 153.177C169.579 154.024 170.266 154.712 171.114 154.712Z" fill="#DD3142"/>
<path d="M167.738 161.225C168.585 161.225 169.272 160.538 169.272 159.69C169.272 158.843 168.585 158.156 167.738 158.156C166.89 158.156 166.203 158.843 166.203 159.69C166.203 160.538 166.89 161.225 167.738 161.225Z" fill="#DD3142"/>
<path opacity="0.69" d="M159.705 87.5076C161.837 86.8791 163.358 85.6669 163.102 84.8001C162.847 83.9329 160.911 83.7392 158.78 84.3673C156.648 84.9958 155.127 86.2077 155.383 87.0749C155.639 87.942 157.574 88.1357 159.705 87.5076Z" fill="#F2AD91"/>
<path opacity="0.69" d="M175.461 83.3728C177.664 83.0812 179.353 82.1182 179.235 81.2221C179.116 80.3259 177.234 79.8356 175.031 80.1271C172.828 80.4187 171.138 81.3817 171.257 82.2778C171.375 83.174 173.257 83.6643 175.461 83.3728Z" fill="#F2AD91"/>
<path d="M217.933 107.654C218.762 107.654 219.434 106.982 219.434 106.153C219.434 105.325 218.762 104.653 217.933 104.653C217.104 104.653 216.433 105.325 216.433 106.153C216.433 106.982 217.104 107.654 217.933 107.654Z" fill="#BCBCBC"/>
</svg>
