<svg width="341" height="341" viewBox="0 0 341 341" fill="none" xmlns="http://www.w3.org/2000/svg">
<g opacity="0.15">
<path opacity="0.15" d="M53.7075 132.274H80.7829V145.471H53.7075" stroke="#474747" stroke-width="6" stroke-miterlimit="10" stroke-linecap="round" stroke-linejoin="round"/>
<path opacity="0.15" d="M107.824 145.471H80.7829" stroke="#474747" stroke-width="6" stroke-miterlimit="10" stroke-linecap="round" stroke-linejoin="round"/>
<path opacity="0.15" d="M80.7829 132.274H91.1493" stroke="#474747" stroke-width="6" stroke-miterlimit="10" stroke-linecap="round" stroke-linejoin="round"/>
<path opacity="0.15" d="M94.2865 145.471H67.2452V158.668H94.2865V145.471Z" stroke="#474747" stroke-width="6" stroke-miterlimit="10" stroke-linecap="round" stroke-linejoin="round"/>
<path opacity="0.15" d="M57.9359 158.736H80.7829V171.933H72.0192" stroke="#474747" stroke-width="6" stroke-miterlimit="10" stroke-linecap="round" stroke-linejoin="round"/>
<path opacity="0.15" d="M107.824 158.736H80.7829V171.933H107.824V158.736Z" stroke="#474747" stroke-width="6" stroke-miterlimit="10" stroke-linecap="round" stroke-linejoin="round"/>
<path opacity="0.15" d="M197.951 180.048H225.026V193.211H197.951" stroke="#474747" stroke-width="6" stroke-miterlimit="10" stroke-linecap="round" stroke-linejoin="round"/>
<path opacity="0.15" d="M252.067 193.211H225.026" stroke="#474747" stroke-width="6" stroke-miterlimit="10" stroke-linecap="round" stroke-linejoin="round"/>
<path opacity="0.15" d="M225.026 180.048H235.392" stroke="#474747" stroke-width="6" stroke-miterlimit="10" stroke-linecap="round" stroke-linejoin="round"/>
<path opacity="0.15" d="M238.53 193.211H211.488V206.408H238.53V193.211Z" stroke="#474747" stroke-width="6" stroke-miterlimit="10" stroke-linecap="round" stroke-linejoin="round"/>
<path opacity="0.15" d="M202.179 206.476H225.026V219.672H216.262" stroke="#474747" stroke-width="6" stroke-miterlimit="10" stroke-linecap="round" stroke-linejoin="round"/>
<path opacity="0.15" d="M242.451 219.672H225.026V206.476H247.566" stroke="#474747" stroke-width="6" stroke-miterlimit="10" stroke-linecap="round" stroke-linejoin="round"/>
<path opacity="0.15" d="M151.711 82.8633H109.734V116.895H151.711V82.8633Z" stroke="#474747" stroke-width="6" stroke-miterlimit="10" stroke-linecap="round" stroke-linejoin="round"/>
<path opacity="0.15" d="M115.531 109.018L123.203 97.8672L131.183 107.722" stroke="#474747" stroke-width="6" stroke-miterlimit="10" stroke-linecap="round" stroke-linejoin="round"/>
<path opacity="0.15" d="M128.25 104.108L138.992 93.707L146.596 109.018" stroke="#474747" stroke-width="6" stroke-miterlimit="10" stroke-linecap="round" stroke-linejoin="round"/>
<path opacity="0.15" d="M125.454 100.629C126 99.0266 127.5 97.8672 129.273 97.8672C130.739 97.8672 132.035 98.6515 132.751 99.845" stroke="#474747" stroke-width="6" stroke-miterlimit="10" stroke-linecap="round" stroke-linejoin="round"/>
<path opacity="0.15" d="M260.865 139.878H201.156C198.939 139.878 197.166 138.105 197.166 135.889C197.166 133.672 198.939 131.899 201.156 131.899H260.865C263.081 131.899 264.855 133.672 264.855 135.889C264.855 138.105 263.081 139.878 260.865 139.878Z" stroke="#474747" stroke-width="6" stroke-miterlimit="10" stroke-linecap="round" stroke-linejoin="round"/>
<path opacity="0.15" d="M240.337 131.899H222.844L219.229 109.563H243.986L240.337 131.899Z" stroke="#474747" stroke-width="6" stroke-miterlimit="10" stroke-linecap="round" stroke-linejoin="round"/>
<path opacity="0.15" d="M247.396 103.084H215.921V109.563H247.396V103.084Z" stroke="#474747" stroke-width="6" stroke-miterlimit="10" stroke-linecap="round" stroke-linejoin="round"/>
<g opacity="0.15">
<path opacity="0.15" d="M235.665 103.085C233.517 103.085 231.369 103.085 229.22 103.085C227.447 96.9125 225.913 90.4335 226.117 84.0909C226.356 81.056 229.629 78.4985 232.46 78.4985C235.29 78.4985 238.564 81.056 238.802 84.0909C238.939 90.4335 237.404 96.9125 235.665 103.085Z" stroke="#474747" stroke-width="6" stroke-miterlimit="10" stroke-linecap="round" stroke-linejoin="round"/>
</g>
<path opacity="0.15" d="M238.939 83.3408L243.406 75.9411C244.258 74.5089 246.202 74.202 247.464 75.2932C248.725 76.3844 248.691 78.3281 247.396 79.3852L239.007 86.2734" stroke="#474747" stroke-width="6" stroke-miterlimit="10" stroke-linecap="round" stroke-linejoin="round"/>
<path opacity="0.15" d="M243.474 75.8727L241.36 69.2573C241.019 68.2343 241.701 67.1772 242.758 67.0408C243.815 66.9044 244.736 67.7228 244.736 68.7799L244.565 74.1336" stroke="#474747" stroke-width="6" stroke-miterlimit="10" stroke-linecap="round" stroke-linejoin="round"/>
</g>
<path d="M184.156 220.729L229.148 128.434L184.61 106.723L139.618 199.017L184.156 220.729Z" fill="#77BA85"/>
<path d="M184.156 220.729L229.148 128.434L184.61 106.723L139.618 199.017L184.156 220.729Z" stroke="#474747" stroke-width="6" stroke-miterlimit="10" stroke-linecap="round" stroke-linejoin="round"/>
<path d="M211.522 126.136L197.269 119.18C194.575 124.738 187.891 127.023 182.333 124.329L147.21 196.348L181.548 213.091L216.671 141.072C211.113 138.378 208.794 131.694 211.522 126.136Z" fill="#F6F9EA"/>
<path d="M211.522 126.136L197.269 119.18C194.575 124.738 187.891 127.023 182.333 124.329L147.21 196.348L181.548 213.091L216.671 141.072C211.113 138.378 208.794 131.694 211.522 126.136Z" stroke="#474747" stroke-width="6" stroke-miterlimit="10" stroke-linecap="round" stroke-linejoin="round"/>
<path d="M221.562 131.033L187.231 114.298L147.214 196.385L181.545 213.121L221.562 131.033Z" stroke="#474747" stroke-width="6" stroke-miterlimit="10" stroke-linecap="round" stroke-linejoin="round"/>
<path d="M187.789 168.215C194.248 168.215 199.485 162.979 199.485 156.519C199.485 150.059 194.248 144.823 187.789 144.823C181.329 144.823 176.092 150.059 176.092 156.519C176.092 162.979 181.329 168.215 187.789 168.215Z" fill="#77BA85"/>
<path d="M187.789 168.215C194.248 168.215 199.485 162.979 199.485 156.519C199.485 150.059 194.248 144.823 187.789 144.823C181.329 144.823 176.092 150.059 176.092 156.519C176.092 162.979 181.329 168.215 187.789 168.215Z" stroke="#474747" stroke-width="6" stroke-miterlimit="10" stroke-linecap="round" stroke-linejoin="round"/>
<path opacity="0.15" d="M57.629 255.307H283.371" stroke="#474747" stroke-width="6" stroke-miterlimit="10" stroke-linecap="round" stroke-linejoin="round"/>
<path d="M190.755 255.307H119.145C107.858 255.307 98.6854 246.134 98.6854 234.847V154.371C98.6854 143.084 107.858 133.911 119.145 133.911H190.755C202.043 133.911 211.215 143.084 211.215 154.371V234.847C211.215 246.168 202.077 255.307 190.755 255.307Z" fill="#F58870"/>
<path d="M190.755 255.307H119.145C107.858 255.307 98.6854 246.134 98.6854 234.847V154.371C98.6854 143.084 107.858 133.911 119.145 133.911H190.755C202.043 133.911 211.215 143.084 211.215 154.371V234.847C211.215 246.168 202.077 255.307 190.755 255.307Z" fill="#F58870"/>
<path d="M190.755 251.181H119.145C107.858 251.181 98.6854 242.008 98.6854 230.721V234.847C98.6854 246.134 107.858 255.307 119.145 255.307H190.755C202.043 255.307 211.215 246.134 211.215 234.847V230.721C211.215 242.008 202.077 251.181 190.755 251.181Z" fill="#DD7868"/>
<path d="M190.755 133.911H119.145C107.858 133.911 98.6854 142.333 98.6854 152.7V157.099C98.6854 146.732 107.858 138.31 119.145 138.31H190.755C202.043 138.31 211.215 146.732 211.215 157.099V152.7C211.215 142.333 202.077 133.911 190.755 133.911Z" fill="#FFA399"/>
<path opacity="0.3" d="M166.885 183.867H148.471C145.095 183.867 142.333 181.105 142.333 177.729V140.049C142.333 136.673 145.095 133.911 148.471 133.911H173.023V177.729C173.023 181.105 170.295 183.867 166.885 183.867Z" fill="#474747" stroke="#474747" stroke-width="6" stroke-miterlimit="10" stroke-linecap="round" stroke-linejoin="round"/>
<path d="M190.755 255.307H119.145C107.858 255.307 98.6854 246.134 98.6854 234.847V154.371C98.6854 143.084 107.858 133.911 119.145 133.911H190.755C202.043 133.911 211.215 143.084 211.215 154.371V234.847C211.215 246.168 202.077 255.307 190.755 255.307Z" stroke="#474747" stroke-width="6" stroke-miterlimit="10" stroke-linecap="round" stroke-linejoin="round"/>
<g opacity="0.46">
<path opacity="0.46" d="M106.187 234.335V154.882C106.187 147.721 111.984 141.924 119.145 141.924H190.755C197.916 141.924 203.713 147.721 203.713 154.882V234.301C203.713 241.462 197.916 247.259 190.755 247.259H119.145C111.984 247.293 106.187 241.496 106.187 234.335Z" stroke="#474747" stroke-width="4" stroke-linecap="round" stroke-linejoin="round" stroke-dasharray="13.96 13.96"/>
</g>
<path d="M164.157 180.116H145.743C142.368 180.116 139.605 177.354 139.605 173.978V132.376C139.605 129 142.368 126.238 145.743 126.238H164.157C167.533 126.238 170.295 129 170.295 132.376V173.978C170.295 177.354 167.567 180.116 164.157 180.116Z" fill="#F79765"/>
<path d="M164.157 177.286H145.743C142.368 177.286 139.605 174.524 139.605 171.148V173.978C139.605 177.354 142.368 180.116 145.743 180.116H164.157C167.533 180.116 170.295 177.354 170.295 173.978V171.148C170.295 174.524 167.567 177.286 164.157 177.286Z" fill="#E27444"/>
<path d="M164.157 126.238H145.743C142.368 126.238 139.605 129 139.605 132.376V134.695C139.605 131.319 142.368 128.557 145.743 128.557H164.157C167.533 128.557 170.295 131.319 170.295 134.695V132.376C170.295 129 167.567 126.238 164.157 126.238Z" fill="#FFB797"/>
<path d="M164.157 180.116H145.743C142.368 180.116 139.605 177.354 139.605 173.978V132.376C139.605 129 142.368 126.238 145.743 126.238H164.157C167.533 126.238 170.295 129 170.295 132.376V173.978C170.295 177.354 167.567 180.116 164.157 180.116Z" stroke="#474747" stroke-width="6" stroke-miterlimit="10" stroke-linecap="round" stroke-linejoin="round"/>
<path opacity="0.3" d="M155.973 171.318C160.343 171.318 163.885 167.777 163.885 163.407C163.885 159.038 160.343 155.496 155.973 155.496C151.604 155.496 148.062 159.038 148.062 163.407C148.062 167.777 151.604 171.318 155.973 171.318Z" fill="#474747" stroke="#474747" stroke-width="6" stroke-miterlimit="10" stroke-linecap="round" stroke-linejoin="round"/>
<g opacity="0.46">
<path opacity="0.46" d="M145.743 176.024C144.618 176.024 143.697 175.103 143.697 173.978V132.376C143.697 131.251 144.618 130.33 145.743 130.33H164.157C165.283 130.33 166.203 131.251 166.203 132.376V173.978C166.203 175.103 165.283 176.024 164.157 176.024H145.743Z" stroke="#474747" stroke-width="4" stroke-linecap="round" stroke-linejoin="round" stroke-dasharray="9.84 9.84"/>
</g>
<path d="M154.95 169.273C159.32 169.273 162.862 165.731 162.862 161.361C162.862 156.992 159.32 153.45 154.95 153.45C150.581 153.45 147.039 156.992 147.039 161.361C147.039 165.731 150.581 169.273 154.95 169.273Z" fill="#8F6D5D"/>
<path d="M154.95 169.273C159.32 169.273 162.862 165.731 162.862 161.361C162.862 156.992 159.32 153.45 154.95 153.45C150.581 153.45 147.039 156.992 147.039 161.361C147.039 165.731 150.581 169.273 154.95 169.273Z" stroke="#474747" stroke-width="6" stroke-miterlimit="10" stroke-linecap="round" stroke-linejoin="round"/>
<g opacity="0.6">
<path opacity="0.6" d="M158.292 157.303C158.565 158.599 157.03 159.418 154.78 159.895C152.495 160.339 150.449 160.407 150.176 159.316C149.904 158.259 151.438 156.246 153.689 155.598C155.973 154.951 158.019 156.042 158.292 157.303Z" fill="#FFFCEE"/>
</g>
<path d="M268.81 255.307H244.94C243.576 255.307 242.451 254.181 242.451 252.817V251.147C242.451 249.783 243.576 248.657 244.94 248.657H268.81C270.174 248.657 271.3 249.783 271.3 251.147V252.817C271.3 254.216 270.174 255.307 268.81 255.307Z" fill="#FDB740"/>
<path opacity="0.88" d="M268.81 249.373H244.94C243.576 249.373 242.451 250.498 242.451 251.862V252.817C242.451 251.453 243.576 250.328 244.94 250.328H268.81C270.174 250.328 271.3 251.453 271.3 252.817V251.862C271.3 250.498 270.174 249.373 268.81 249.373Z" fill="#FFF3C0"/>
<path d="M268.81 254.556H244.94C243.576 254.556 242.451 253.431 242.451 252.067V251.112C242.451 252.476 243.576 253.602 244.94 253.602H268.81C270.174 253.602 271.3 252.476 271.3 251.112V252.067C271.3 253.465 270.174 254.556 268.81 254.556Z" fill="#F29E25"/>
<path d="M268.81 255.307H244.94C243.576 255.307 242.451 254.181 242.451 252.817V251.147C242.451 249.783 243.576 248.657 244.94 248.657H268.81C270.174 248.657 271.3 249.783 271.3 251.147V252.817C271.3 254.216 270.174 255.307 268.81 255.307Z" stroke="#474747" stroke-width="6" stroke-miterlimit="10" stroke-linecap="round" stroke-linejoin="round"/>
<path d="M272.8 248.691H248.93C247.566 248.691 246.441 247.566 246.441 246.202V244.531C246.441 243.167 247.566 242.042 248.93 242.042H272.8C274.164 242.042 275.289 243.167 275.289 244.531V246.202C275.255 247.6 274.164 248.691 272.8 248.691Z" fill="#FDB740"/>
<path opacity="0.88" d="M272.8 242.757H248.93C247.566 242.757 246.441 243.883 246.441 245.247V246.201C246.441 244.837 247.566 243.712 248.93 243.712H272.8C274.164 243.712 275.289 244.837 275.289 246.201V245.247C275.255 243.883 274.164 242.757 272.8 242.757Z" fill="#FFF3C0"/>
<path d="M272.8 247.941H248.93C247.566 247.941 246.441 246.816 246.441 245.452V244.497C246.441 245.861 247.566 246.986 248.93 246.986H272.8C274.164 246.986 275.289 245.861 275.289 244.497V245.452C275.255 246.85 274.164 247.941 272.8 247.941Z" fill="#F29E25"/>
<path d="M272.8 248.691H248.93C247.566 248.691 246.441 247.566 246.441 246.202V244.531C246.441 243.167 247.566 242.042 248.93 242.042H272.8C274.164 242.042 275.289 243.167 275.289 244.531V246.202C275.255 247.6 274.164 248.691 272.8 248.691Z" stroke="#474747" stroke-width="6" stroke-miterlimit="10" stroke-linecap="round" stroke-linejoin="round"/>
<path d="M268.81 242.076H244.94C243.576 242.076 242.451 240.95 242.451 239.586V237.916C242.451 236.552 243.576 235.426 244.94 235.426H268.81C270.174 235.426 271.3 236.552 271.3 237.916V239.586C271.3 240.985 270.174 242.076 268.81 242.076Z" fill="#FDB740"/>
<path opacity="0.88" d="M268.81 236.177H244.94C243.576 236.177 242.451 237.302 242.451 238.666V239.621C242.451 238.257 243.576 237.132 244.94 237.132H268.81C270.174 237.132 271.3 238.257 271.3 239.621V238.666C271.3 237.268 270.174 236.177 268.81 236.177Z" fill="#FFF3C0"/>
<path d="M268.81 241.36H244.94C243.576 241.36 242.451 240.234 242.451 238.87V237.916C242.451 239.28 243.576 240.405 244.94 240.405H268.81C270.174 240.405 271.3 239.28 271.3 237.916V238.87C271.3 240.234 270.174 241.36 268.81 241.36Z" fill="#F29E25"/>
<path d="M268.81 242.076H244.94C243.576 242.076 242.451 240.95 242.451 239.586V237.916C242.451 236.552 243.576 235.426 244.94 235.426H268.81C270.174 235.426 271.3 236.552 271.3 237.916V239.586C271.3 240.985 270.174 242.076 268.81 242.076Z" stroke="#474747" stroke-width="6" stroke-miterlimit="10" stroke-linecap="round" stroke-linejoin="round"/>
<path d="M241.803 237.097L225.503 254.523C224.583 255.512 223.014 255.58 221.991 254.625L220.797 253.5C219.809 252.579 219.74 251.01 220.695 249.987L236.995 232.562C237.916 231.573 239.484 231.505 240.507 232.46L241.701 233.585C242.656 234.54 242.724 236.074 241.803 237.097Z" fill="#FDB740"/>
<path opacity="0.88" d="M237.472 233.039L221.173 250.464C220.252 251.453 220.286 253.022 221.275 253.977L221.991 254.625C221.002 253.704 220.934 252.135 221.889 251.112L238.188 233.687C239.109 232.698 240.678 232.63 241.701 233.585L240.985 232.937C239.962 231.982 238.393 232.05 237.472 233.039Z" fill="#FFF3C0"/>
<path d="M241.258 236.586L224.958 254.011C224.037 255 222.468 255.068 221.445 254.113L220.729 253.465C221.718 254.386 223.287 254.352 224.242 253.363L240.541 235.938C241.462 234.949 241.428 233.381 240.439 232.426L241.155 233.074C242.11 234.028 242.178 235.597 241.258 236.586Z" fill="#F29E25"/>
<path d="M241.803 237.097L225.503 254.523C224.583 255.512 223.014 255.58 221.991 254.625L220.797 253.5C219.809 252.579 219.74 251.01 220.695 249.987L236.995 232.562C237.916 231.573 239.484 231.505 240.507 232.46L241.701 233.585C242.656 234.54 242.724 236.074 241.803 237.097Z" stroke="#474747" stroke-width="6" stroke-miterlimit="10" stroke-linecap="round" stroke-linejoin="round"/>
</svg>
