<svg width="32" height="32" viewBox="0 0 32 32" fill="none" xmlns="http://www.w3.org/2000/svg">
<g id="Iconsax/Linear/box">
<path id="Vector" d="M4.22656 9.91992L15.9999 16.7333L27.6932 9.95992M15.9999 28.8133V16.7199" stroke="black" stroke-width="1.5" stroke-linecap="round" stroke-linejoin="round"/>
<path id="Vector_2" d="M13.2401 3.30699L6.1201 7.26699C4.50677 8.16032 3.18677 10.4003 3.18677 12.2403V19.7737C3.18677 21.6137 4.50677 23.8537 6.1201 24.747L13.2401 28.707C14.7601 29.547 17.2534 29.547 18.7734 28.707L25.8934 24.747C27.5068 23.8537 28.8268 21.6137 28.8268 19.7737V12.2403C28.8268 10.4003 27.5068 8.16032 25.8934 7.26699L18.7734 3.30699C17.2401 2.45366 14.7601 2.45366 13.2401 3.30699V3.30699Z" stroke="black" stroke-width="1.5" stroke-linecap="round" stroke-linejoin="round"/>
<path id="Vector_3" d="M22.6668 17.6535V12.7735L10.0134 5.4668" stroke="black" stroke-width="1.5" stroke-linecap="round" stroke-linejoin="round"/>
</g>
</svg>
