<svg width="28" height="25" viewBox="0 0 28 25" fill="none" xmlns="http://www.w3.org/2000/svg">
<path fill-rule="evenodd" clip-rule="evenodd" d="M12.2821 0.641706C12.7649 0.227625 13.38 0 14.016 0C14.6521 0 15.2672 0.227625 15.75 0.641706L24.1881 7.87321L27.5002 10.5234C27.6368 10.6327 27.7505 10.7679 27.8349 10.9211C27.9192 11.0744 27.9726 11.2428 27.9919 11.4166C28.0112 11.5905 27.996 11.7665 27.9473 11.9345C27.8986 12.1025 27.8173 12.2593 27.708 12.3959C27.5986 12.5325 27.4635 12.6462 27.3103 12.7306C27.157 12.8149 26.9886 12.8683 26.8147 12.8876C26.6409 12.9069 26.4649 12.8917 26.2969 12.843C26.1289 12.7943 25.9721 12.713 25.8355 12.6037L24.6702 11.6714V22.2177C24.6702 22.9241 24.3896 23.6016 23.8901 24.1011C23.3905 24.6006 22.7131 24.8812 22.0066 24.8812H16.6796V18.2224C16.6796 17.516 16.3989 16.8385 15.8994 16.339C15.3999 15.8395 14.7224 15.5589 14.016 15.5589C13.3096 15.5589 12.6321 15.8395 12.1326 16.339C11.6331 16.8385 11.3525 17.516 11.3525 18.2224V24.8812H6.02541C5.319 24.8812 4.64152 24.6006 4.14201 24.1011C3.6425 23.6016 3.36188 22.9241 3.36188 22.2177V11.6701L2.19658 12.6023C2.06092 12.7182 1.90336 12.8056 1.73327 12.8594C1.56318 12.9131 1.38402 12.9322 1.20642 12.9154C1.02882 12.8986 0.856407 12.8463 0.699409 12.7616C0.542412 12.6769 0.404031 12.5615 0.292483 12.4223C0.180934 12.2831 0.0984907 12.1229 0.0500466 11.9512C0.00160249 11.7795 -0.011855 11.5999 0.0104727 11.4229C0.0328004 11.2459 0.0904583 11.0752 0.180024 10.9209C0.26959 10.7666 0.389237 10.6319 0.531865 10.5248L3.84398 7.87455L12.2821 0.641706Z" fill="#C5C5C5"/>
</svg>
