<svg width="28" height="28" viewBox="0 0 28 28" fill="none" xmlns="http://www.w3.org/2000/svg">
<g id="&#240;&#159;&#166;&#134; icon &#34;Book Reader&#34;">
<path id="Vector" d="M19.2499 5.24999C19.2499 2.35046 16.8995 0 14 0C11.1004 0 8.74998 2.35046 8.74998 5.24999C8.74998 8.14951 11.1004 10.5 14 10.5C16.8995 10.5 19.2499 8.14951 19.2499 5.24999ZM12.7744 13.1851C9.52982 11.1989 4.27436 10.6531 1.62968 10.5027C0.741014 10.4524 0 11.1294 0 11.9842V24.1685C0 24.9522 0.633826 25.6057 1.44867 25.6478C3.83632 25.7731 8.66685 26.2319 12.0055 27.9135C12.5179 28.1716 13.1255 27.82 13.1255 27.2644V13.8118C13.125 13.5564 12.9986 13.3224 12.7744 13.1851ZM26.3702 10.5027C23.7261 10.6526 18.4701 11.1989 15.2261 13.1851C15.0018 13.3224 14.8755 13.5657 14.8755 13.8211V27.2627C14.8755 27.82 15.4847 28.1722 15.9988 27.9135C19.3369 26.2335 24.1647 25.7747 26.5518 25.6495C27.3666 25.6068 28.0005 24.9533 28.0005 24.1696V11.9842C27.9999 11.1294 27.2589 10.4524 26.3702 10.5027Z" fill="#FCCD1D"/>
</g>
</svg>
