<?xml version="1.0" standalone="no"?>
<!DOCTYPE svg PUBLIC "-//W3C//DTD SVG 20010904//EN"
 "http://www.w3.org/TR/2001/REC-SVG-20010904/DTD/svg10.dtd">
<svg version="1.0" xmlns="http://www.w3.org/2000/svg"
 width="225.000000pt" height="225.000000pt" viewBox="0 0 225.000000 225.000000"
 preserveAspectRatio="xMidYMid meet">

<g transform="translate(0.000000,225.000000) scale(0.100000,-0.100000)"
fill="#000000" stroke="none">
<path d="M1036 2024 c-179 -43 -328 -199 -367 -381 -16 -80 -6 -201 26 -303
21 -65 95 -233 132 -301 2 -3 -18 -12 -44 -19 -44 -12 -75 -40 -371 -334 -177
-176 -322 -328 -322 -337 0 -25 27 -42 57 -36 16 2 122 37 238 77 l210 73 229
-127 229 -128 216 47 c119 25 230 51 247 56 22 7 127 108 335 321 167 171 305
317 307 325 5 20 -17 43 -40 43 -11 0 -114 -21 -229 -46 l-209 -46 -105 59
c-58 32 -104 60 -102 63 2 3 31 62 65 131 68 136 112 285 112 374 0 135 -47
253 -142 351 -123 129 -299 180 -472 138z m286 -108 c210 -101 290 -314 208
-558 -56 -167 -209 -429 -338 -577 l-38 -44 -50 57 c-237 275 -391 631 -354
818 30 152 139 277 283 324 27 9 76 13 137 11 79 -3 105 -8 152 -31z m-422
-992 l19 -30 -172 -172 -172 -172 -129 -45 c-71 -25 -130 -44 -132 -42 -2 1
100 106 226 232 193 193 238 233 278 247 26 9 51 16 55 15 4 -2 17 -16 27 -33z
m617 -22 l82 -48 -273 -273 -273 -273 -184 102 c-101 56 -187 105 -191 109 -4
4 60 74 143 156 l150 150 22 -30 c56 -76 140 -165 156 -165 9 0 24 6 33 13 26
21 124 142 183 226 31 45 60 81 63 81 4 0 44 -22 89 -48z m223 -260 l-245
-248 -140 -31 c-77 -17 -142 -29 -144 -27 -3 3 104 114 237 247 l243 243 142
31 c78 17 144 31 147 32 2 1 -106 -111 -240 -247z"/>
<path d="M1069 1805 c-56 -18 -132 -83 -162 -139 -31 -59 -31 -184 0 -242 28
-53 74 -99 127 -127 58 -31 184 -31 241 0 89 47 155 153 155 248 0 94 -68 203
-153 244 -57 28 -149 35 -208 16z m171 -94 c58 -31 93 -83 98 -145 2 -30 2
-66 -2 -80 -8 -33 -61 -93 -100 -113 -39 -20 -123 -20 -162 0 -58 30 -114 114
-114 172 0 59 59 147 115 171 44 19 124 17 165 -5z"/>
</g>
</svg>
