<svg width="28" height="30" viewBox="0 0 28 30" fill="none" xmlns="http://www.w3.org/2000/svg">
<path d="M24.8424 3.27518C24.1101 2.60051 21.1461 0.449626 14.5378 0.420794C14.5378 0.420794 6.74733 -0.0462879 2.95302 3.43664C0.842499 5.54716 0.0986281 8.64374 0.017898 12.4784C-0.0628321 16.3131 -0.160862 23.4981 6.76463 25.4471H6.7704L6.76463 28.4226C6.76463 28.4226 6.7185 29.6278 7.51427 29.87C8.4715 30.1699 9.03661 29.253 9.95347 28.2669C10.4552 27.7249 11.1471 26.9291 11.6719 26.3236C16.4119 26.7215 20.0505 25.8104 20.4657 25.6778C21.4229 25.3664 26.8376 24.6744 27.7141 17.4895C28.6252 10.0738 27.2759 5.39146 24.8424 3.27518ZM25.644 16.9474C24.9001 22.9445 20.5118 23.3251 19.7045 23.5846C19.3585 23.6941 16.1582 24.4899 12.139 24.2304C12.139 24.2304 9.1404 27.846 8.20624 28.7859C7.90062 29.0915 7.56617 29.0627 7.57193 28.4572C7.57193 28.0593 7.595 23.5154 7.595 23.5154C7.58923 23.5154 7.58923 23.5154 7.595 23.5154C1.72476 21.8892 2.07075 15.7711 2.13418 12.5707C2.19761 9.37031 2.80309 6.74658 4.59068 4.98205C7.80259 2.06999 14.4167 2.50248 14.4167 2.50248C20.0044 2.52554 22.68 4.20934 23.3028 4.77445C25.3614 6.53899 26.4109 10.76 25.644 16.9474ZM17.6286 12.2881C17.6517 12.784 16.9078 12.8186 16.8847 12.3227C16.8213 11.0541 16.2274 10.4371 15.0049 10.3679C14.509 10.3391 14.5551 9.5952 15.0452 9.62403C16.6541 9.71053 17.5479 10.6332 17.6286 12.2881ZM18.7992 12.9397C18.8569 10.4948 17.3287 8.5803 14.4282 8.36695C13.9381 8.33235 13.99 7.58848 14.4801 7.62308C17.8247 7.86527 19.6065 10.1661 19.5431 12.957C19.5373 13.4529 18.7877 13.4299 18.7992 12.9397ZM21.5094 13.7124C21.5152 14.2083 20.7655 14.2141 20.7655 13.7182C20.7309 9.01855 17.5998 6.45825 13.7997 6.42942C13.3095 6.42366 13.3095 5.68555 13.7997 5.68555C18.0496 5.71438 21.4691 8.6495 21.5094 13.7124ZM20.8578 19.3693V19.3808C20.235 20.4765 19.0702 21.6874 17.8708 21.3011L17.8593 21.2838C16.6425 20.9435 13.7766 19.4673 11.966 18.0257C11.0318 17.2876 10.1784 16.4169 9.52099 15.5808C8.92705 14.8369 8.32734 13.9546 7.74493 12.8936C6.51667 10.6735 6.24565 9.68169 6.24565 9.68169C5.8593 8.48228 7.06449 7.31745 8.16588 6.69468H8.17741C8.70792 6.41789 9.21537 6.51015 9.55559 6.91957C9.55559 6.91957 10.2706 7.773 10.5762 8.19395C10.8646 8.58607 11.2509 9.21461 11.4527 9.56637C11.8045 10.1949 11.5854 10.835 11.2394 11.1002L10.5474 11.6538C10.1957 11.9364 10.2418 12.4611 10.2418 12.4611C10.2418 12.4611 11.2682 16.3419 15.1029 17.3222C15.1029 17.3222 15.6276 17.3684 15.9102 17.0166L16.4638 16.3246C16.729 15.9786 17.3691 15.7595 17.9977 16.1113C18.8453 16.5899 19.9236 17.3338 20.6387 18.0084C21.0423 18.3371 21.1346 18.8388 20.8578 19.3693Z" fill="#FCCD1D"/>
</svg>
