<svg width="24" height="25" viewBox="0 0 24 25" fill="none" xmlns="http://www.w3.org/2000/svg">
<g id="&#240;&#159;&#166;&#134; icon &#34;profile&#34;">
<path id="Vector" fill-rule="evenodd" clip-rule="evenodd" d="M16.3636 9.60875C16.3636 12.0187 14.4099 13.9724 12 13.9724C9.59002 13.9724 7.63635 12.0187 7.63635 9.60875C7.63635 7.19878 9.59002 5.24512 12 5.24512C14.4099 5.24512 16.3636 7.19878 16.3636 9.60875ZM14.1818 9.60875C14.1818 10.8138 13.205 11.7906 12 11.7906C10.795 11.7906 9.81817 10.8138 9.81817 9.60875C9.81817 8.40377 10.795 7.42694 12 7.42694C13.205 7.42694 14.1818 8.40377 14.1818 9.60875Z" fill="#C5C5C5"/>
<path id="Vector_2" fill-rule="evenodd" clip-rule="evenodd" d="M12 0.881348C5.37259 0.881348 0 6.25393 0 12.8813C0 19.5087 5.37259 24.8813 12 24.8813C18.6274 24.8813 24 19.5087 24 12.8813C24 6.25393 18.6274 0.881348 12 0.881348ZM2.18182 12.8813C2.18182 15.1616 2.95915 17.2603 4.26325 18.9268C6.05722 16.5783 8.88684 15.0632 12.0704 15.0632C15.2125 15.0632 18.01 16.5393 19.8071 18.8359C21.0687 17.1842 21.8182 15.1203 21.8182 12.8813C21.8182 7.45892 17.4225 3.06317 12 3.06317C6.57757 3.06317 2.18182 7.45892 2.18182 12.8813ZM12 22.6995C9.65429 22.6995 7.50071 21.8769 5.812 20.5044C7.19293 18.5336 9.48116 17.245 12.0704 17.245C14.6273 17.245 16.8909 18.5018 18.2769 20.4314C16.5752 21.8476 14.387 22.6995 12 22.6995Z" fill="#C5C5C5"/>
</g>
</svg>
