<svg width="66" height="67" viewBox="0 0 66 67" fill="none" xmlns="http://www.w3.org/2000/svg">
<g id="Iconsax/Bold/profilecircle">
<path id="Vector" d="M60.5 33.7935C60.5 18.641 48.1525 6.29346 33 6.29346C17.8475 6.29346 5.5 18.641 5.5 33.7935C5.5 41.7685 8.9375 48.946 14.3825 53.9785C14.3825 54.006 14.3825 54.006 14.355 54.0335C14.63 54.3085 14.96 54.5285 15.235 54.776C15.4 54.9135 15.5375 55.051 15.7025 55.161C16.1975 55.5735 16.7475 55.9585 17.27 56.3435L17.82 56.7285C18.3425 57.086 18.8925 57.416 19.47 57.7185C19.6625 57.8285 19.8825 57.966 20.075 58.076C20.625 58.3785 21.2025 58.6535 21.8075 58.901C22.0275 59.011 22.2475 59.121 22.4675 59.2035C23.0725 59.451 23.6775 59.671 24.2825 59.8635C24.5025 59.946 24.7225 60.0285 24.9425 60.0835C25.6025 60.276 26.2625 60.441 26.9225 60.606C27.115 60.661 27.3075 60.716 27.5275 60.7435C28.2975 60.9085 29.0675 61.0185 29.865 61.101C29.975 61.101 30.085 61.1285 30.195 61.156C31.13 61.2385 32.065 61.2935 33 61.2935C33.935 61.2935 34.87 61.2385 35.7775 61.156C35.8875 61.156 35.9975 61.1285 36.1075 61.101C36.905 61.0185 37.675 60.9085 38.445 60.7435C38.6375 60.716 38.83 60.6335 39.05 60.606C39.71 60.441 40.3975 60.3035 41.03 60.0835C41.25 60.001 41.47 59.9185 41.69 59.8635C42.295 59.6435 42.9275 59.451 43.505 59.2035C43.725 59.121 43.945 59.011 44.165 58.901C44.7425 58.6535 45.32 58.3785 45.8975 58.076C46.1175 57.966 46.31 57.8285 46.5025 57.7185C47.0525 57.3885 47.6025 57.086 48.1525 56.7285C48.345 56.6185 48.51 56.481 48.7025 56.3435C49.2525 55.9585 49.775 55.5735 50.27 55.161C50.435 55.0235 50.5725 54.886 50.7375 54.776C51.04 54.5285 51.3425 54.281 51.6175 54.0335C51.6175 54.006 51.6175 54.006 51.59 53.9785C57.0625 48.946 60.5 41.7685 60.5 33.7935ZM46.585 47.461C39.1325 42.456 26.9225 42.456 19.415 47.461C18.205 48.2585 17.215 49.1935 16.39 50.211C12.0582 45.8447 9.62677 39.9439 9.625 33.7935C9.625 20.896 20.1025 10.4185 33 10.4185C45.8975 10.4185 56.375 20.896 56.375 33.7935C56.375 40.1735 53.79 45.976 49.61 50.211C48.8125 49.1935 47.795 48.2585 46.585 47.461Z" fill="#FCCD1D"/>
<path id="Vector_2" d="M33 19.8511C27.3075 19.8511 22.6875 24.4711 22.6875 30.1636C22.6875 35.7461 27.06 40.2836 32.8625 40.4486H33.3575C36.027 40.3608 38.5578 39.2388 40.4154 37.3197C42.2729 35.4005 43.3118 32.8345 43.3125 30.1636C43.3125 24.4711 38.6925 19.8511 33 19.8511Z" fill="#FCCD1D"/>
</g>
</svg>
