<svg width="25" height="25" viewBox="0 0 25 25" fill="none" xmlns="http://www.w3.org/2000/svg">
<g id="&#240;&#159;&#166;&#134; icon &#34;shopping cart outline&#34;">
<g id="Group">
<path id="Vector" d="M24.397 6.21521C24.1828 5.81606 23.8762 5.48342 23.5069 5.24976C23.1376 5.01609 22.7184 4.88936 22.2901 4.88194H6.42631L5.70748 1.86875C5.63486 1.57788 5.47282 1.32203 5.24778 1.14288C5.02273 0.963725 4.74793 0.871819 4.46813 0.88213H1.98942C1.66072 0.88213 1.34548 1.0226 1.11306 1.27264C0.880636 1.52267 0.750061 1.8618 0.750061 2.2154C0.750061 2.56901 0.880636 2.90813 1.11306 3.15817C1.34548 3.4082 1.66072 3.54867 1.98942 3.54867H3.52622L6.94684 17.228C7.01946 17.5189 7.1815 17.7747 7.40654 17.9539C7.63159 18.1331 7.90639 18.225 8.18619 18.2147H19.3404C19.5693 18.2139 19.7935 18.145 19.9882 18.0156C20.1828 17.8861 20.3404 17.7012 20.4434 17.4814L24.5085 8.7351C24.6847 8.3378 24.7667 7.89976 24.7473 7.46007C24.7278 7.02037 24.6074 6.5927 24.397 6.21521ZM18.572 15.5481H9.1281L7.10795 7.54848H22.2901L18.572 15.5481Z" fill="#C5C5C5"/>
<path id="Vector_2" d="M7.56661 24.8812C8.59333 24.8812 9.42565 23.9858 9.42565 22.8813C9.42565 21.7767 8.59333 20.8813 7.56661 20.8813C6.5399 20.8813 5.70758 21.7767 5.70758 22.8813C5.70758 23.9858 6.5399 24.8812 7.56661 24.8812Z" fill="#C5C5C5"/>
<path id="Vector_3" d="M19.9602 24.8812C20.9869 24.8812 21.8192 23.9858 21.8192 22.8813C21.8192 21.7767 20.9869 20.8813 19.9602 20.8813C18.9335 20.8813 18.1011 21.7767 18.1011 22.8813C18.1011 23.9858 18.9335 24.8812 19.9602 24.8812Z" fill="#C5C5C5"/>
</g>
</g>
</svg>
